<svg id="Capa_1" data-name="Capa 1" xmlns="http://www.w3.org/2000/svg" viewBox="0 0 64 64"><title>Sin título-1</title><ellipse cx="45.22" cy="9.84" rx="6.39" ry="6.67" fill="#d18c07" stroke="#d18c07" stroke-miterlimit="10" stroke-width="0.25"/><ellipse cx="31.14" cy="53.64" rx="7.69" ry="7.37" fill="#051733" stroke="#051733" stroke-miterlimit="10" stroke-width="0.25"/><path d="M53.37,44.8c-3.23-4.61-3.52-7.48-3.76-18.06v-.06c0-.3,0-.59,0-.89h0a18.48,18.48,0,0,0-36.91,0h0s0,.13,0,.35,0,.36,0,.54,0,.63,0,.94c0,3.53-.16,11.16-1.74,13.86C8.85,45,6.57,47.82,7.5,50.1s4.75,4.54,16.11,5.33c0,0,3,.25,15.07,0,0,0,11-.31,15.23-4C53.91,51.41,56.69,49.56,53.37,44.8Z" fill="#005989" stroke="#005989" stroke-miterlimit="10" stroke-width="0.75"/></svg>